<?xml version="1.0" encoding="utf-8"?>
<!-- Generator: Adobe Illustrator 27.1.1, SVG Export Plug-In . SVG Version: 6.00 Build 0)  -->
<svg version="1.1" id="Layer_1" xmlns="http://www.w3.org/2000/svg" xmlns:xlink="http://www.w3.org/1999/xlink" x="0px" y="0px"
	 viewBox="0 0 956.16 422.06" style="enable-background:new 0 0 956.16 422.06;" xml:space="preserve">
<style type="text/css">
	.st0{fill:#263A8B;}
	.st1{fill:#C5D4E3;}
	.st2{fill:#4B5FAB;}
</style>
<path class="st0" d="M339.69,183.64v11.3h49.19c1,0,1.81,0.81,1.81,1.81v18.12c0,1-0.81,1.8-1.8,1.8h-49.2v23.03
	c0,6.18,5.05,11.23,11.23,11.23h74.22c1,0,1.81,0.81,1.81,1.8v18.12c0,1-0.81,1.8-1.81,1.8h-74.3c-18.16,0-32.89-14.72-32.89-32.89
	v-56.14c0-18.2,14.76-32.96,32.96-32.96h74.22c1,0,1.81,0.81,1.81,1.81v18.12c0,1-0.81,1.8-1.81,1.8h-74.23
	C344.74,172.41,339.69,177.46,339.69,183.64"/>
<path class="st0" d="M566.35,152.59v18.14c0,1-0.81,1.81-1.81,1.81h-48.28v98.36c0,1-0.81,1.81-1.81,1.81h-18.14
	c-1,0-1.81-0.81-1.81-1.81v-98.36h-48.27c-1,0-1.81-0.81-1.81-1.81v-18.14c0-1,0.81-1.81,1.81-1.81h118.3
	C565.54,150.78,566.35,151.59,566.35,152.59"/>
<path class="st0" d="M642.43,150.75c33.61,0,60.92,27.23,60.92,60.92c0,14.92-5.36,28.68-14.41,39.26c-1.09,1.3-2.25,2.61-3.48,3.84
	c-11.01,11.08-26.22,17.89-43.03,17.89h-52.95c-2.46,0-4.46-2-4.46-4.46V155.21c0-2.46,2-4.46,4.46-4.46H642.43z M606.76,250.93
	h35.68c21.59,0,39.19-17.6,39.19-39.26c0-21.59-17.6-39.19-39.19-39.19h-35.68V250.93z"/>
<path class="st0" d="M833.98,269.94l-10.58-21.39l-47.49-95.75c-0.62-1.25-1.89-2.04-3.29-2.04h-8.32c-1.4,0-2.67,0.79-3.29,2.04
	l-47.49,95.75l-10.58,21.39c-0.62,1.25,0.29,2.72,1.69,2.72h22.06c0.71,0,1.37-0.41,1.69-1.04l11.48-23.06l0.63-1.27h55.94
	l0.63,1.27l11.48,23.06c0.32,0.64,0.97,1.04,1.69,1.04h22.06C833.69,272.66,834.6,271.2,833.98,269.94 M751.32,225.43l17.15-34.62
	l17.15,34.62H751.32z"/>
<g>
	<polygon class="st0" points="179.03,279.29 156.83,300 201.23,300 	"/>
	
		<rect x="231.18" y="172.24" transform="matrix(0.7071 -0.7071 0.7071 0.7071 -60.7408 229.9977)" class="st1" width="32.16" height="32.17"/>
	
		<rect x="231.18" y="217.72" transform="matrix(0.7071 -0.7071 0.7071 0.7071 -92.9047 243.3204)" class="st1" width="32.17" height="32.16"/>
	<path class="st1" d="M205.12,298.69l19.4-19.4l-22.74-22.74l-22.74,22.74l19.4,19.4C200.27,300.54,203.27,300.54,205.12,298.69"/>
	<polygon class="st1" points="224.52,279.29 247.26,256.55 201.77,256.55 	"/>
	<polygon class="st2" points="224.52,233.81 201.77,211.06 179.03,233.81 201.77,256.55 247.26,256.55 	"/>
	<path class="st0" d="M270,188.32l-22.74,22.74L270,233.81l14.32-14.32c0.89-0.89,1.39-2.09,1.39-3.35v-10.16
		c0-1.26-0.5-2.46-1.39-3.35L270,188.32z"/>
	<path class="st1" d="M121.99,265.78c0,1.26,0.5,2.46,1.39,3.35l10.17,10.17l19.4,19.4c1.85,1.85,4.85,1.85,6.69,0l19.39-19.4
		l-22.74-22.74h-34.3V265.78z"/>
	<path class="st0" d="M150.22,204.97l22.74-22.74l-16.67-16.65l-34.3,0v9.23c0,1.26,0.5,2.46,1.39,3.35l10.17,10.17L150.22,204.97z"
		/>
	<polygon class="st0" points="179,142.77 201.2,122.07 156.8,122.07 	"/>
	<path class="st1" d="M247.26,165.58l-22.78-22.81l-19.4-19.4c-1.85-1.85-4.85-1.85-6.69,0l-19.4,19.4l22.74,22.74l45.44,0"/>
	<polygon class="st2" points="224.52,234.35 201.77,257.09 247.26,257.09 	"/>
	<path class="st0" d="M201.77,165.58l-22.74,22.75l-22.74,22.74l-22.74,22.75l-10.17,10.17c-0.89,0.89-1.39,2.09-1.39,3.35v9.23
		h34.3l22.74-22.74l0.18-0.18l15.14,15.03c-6.09-17.71,0.12-29.23,4.36-34.53l3.07-3.07l22.74-22.74l22.74-22.74L201.77,165.58z"/>
	<path class="st1" d="M121.99,156.31c0-1.42,0.56-2.77,1.56-3.77l9.99-9.99l18.97-18.97c2.09-2.09,5.46-2.09,7.55,0l18.54,18.54
		c0.23,0.23,0.24,0.62,0,0.85l-22.1,22.4c-0.11,0.12-0.27,0.18-0.43,0.18l-33.48,0c-0.33,0-0.6-0.27-0.6-0.6V156.31z"/>
</g>
</svg>
